/* XPM */
static char *_4e4731a7b9b4c7085f7c3fb3b6459ffqJ7dc9qBY8xBkPYg[] = {
/* columns rows colors chars-per-pixel */
"16 16 150 2 ",
"   c black",
".  c #7DDB59",
"X  c #6FC35D",
"o  c #75CA5D",
"O  c #81DC5A",
"+  c #85E255",
"@  c #7BD559",
"#  c #73C85C",
"$  c #7ED958",
"%  c #6CC05F",
"&  c #65B663",
"*  c #81DD56",
"=  c None",
"-  c #76C54F",
";  c #71C65D",
":  c yellow",
">  c #61B164",
",  c #77D657",
"<  c #84E04D",
"1  c #5CA866",
"2  c #FFFF7F",
"3  c #8CEB55",
"4  c #7AD65B",
"5  c #6EC160",
"6  c #68BB62",
"7  c #6ABD60",
"8  c #64B964",
"9  c #63AE67",
"0  c blue",
"q  c #7BD559",
"w  c #6FC758",
"e  c #74C652",
"r  c #7AD359",
"t  c blue",
"y  c #74CA5C",
"u  c #73CE56",
"i  c #77CD51",
"p  c #70C55E",
"a  c #79D15B",
"s  c #77CD5B",
"d  c #76CD5C",
"f  c #7BD359",
"g  c #79D259",
"h  c #70C45F",
"j  c #73CC5C",
"k  c #76CE5B",
"l  c #78CF5C",
"z  c #6DBF64",
"x  c #519C76",
"c  c #71C969",
"v  c #71CA69",
"b  c #468C7B",
"n  c #56A57B",
"m  c #73CD65",
"M  c #62AF5C",
"N  c #70C655",
"B  c #67BB5A",
"V  c #539D64",
"C  c #7DDA60",
"Z  c #58A77B",
"A  c #85E867",
"S  c #346F78",
"D  c #70E28D",
"F  c #59DCBE",
"G  c #60D8B6",
"H  c #80D976",
"J  c #4C926E",
"K  c #89EF66",
"L  c #59A66F",
"P  c #7AD39B",
"I  c #89B5AE",
"U  c #C99FA2",
"Y  c #CDA795",
"T  c #60C9D8",
"R  c #60D7B8",
"E  c #4C9474",
"W  c #66BA6C",
"Q  c #407D69",
"!  c #6CD991",
"~  c #55E2EF",
"^  c #ABB8B0",
"/  c #DDA5AF",
"(  c #CC9AA2",
")  c #86C9D5",
"_  c #54E0F6",
"`  c #6CD68C",
"'  c #458367",
"]  c #63B66E",
"[  c #80DF62",
"{  c #7AD04F",
"}  c #5FD9C0",
"|  c #53DDEE",
" . c #A1C8D0",
".. c #E1A2AB",
"X. c #D18892",
"o. c #A5B1B1",
"O. c #54E2ED",
"+. c #5FD9C1",
"@. c #7BD04E",
"#. c #81E062",
"$. c #82E261",
"%. c #7CD14E",
"&. c #5FD7C0",
"*. c #61E1F2",
"=. c #55D2DA",
"-. c #8BA6AC",
";. c #86B1BD",
":. c #7ED0B6",
">. c #79D5CB",
",. c #5AD9C6",
"<. c #7BD14E",
"1. c #83E261",
"2. c #88EA5E",
"3. c #89E44A",
"4. c #6AD992",
"5. c #6ACFE4",
"6. c #6CA196",
"7. c #44CDD2",
"8. c #3BB2B6",
"9. c #66E2E0",
"0. c #62D9EA",
"q. c #6BD68E",
"w. c #74CC64",
"e. c #73C8A2",
"r. c #76CAD3",
"t. c #5CE5F2",
"y. c #96A194",
"u. c #58DBF7",
"i. c #5FDFBF",
"p. c #73CC64",
"a. c #80E069",
"s. c #5BA566",
"d. c #6BDF94",
"f. c #64DABC",
"g. c #6CD8B7",
"h. c #71D788",
"j. c #5BA767",
"k. c #7FE069",
"l. c #84E767",
"z. c #64B56B",
"x. c #65B159",
"c. c #72C452",
"v. c #6ABF59",
"b. c #69B858",
"n. c #67BA69",
"m. c #83E668",
"M. c #78D365",
"N. c #78D465",
"B. c #70C769",
"V. c #7CD963",
/* pixels */
"                                ",
"            . X o O             ",
"        + @ x c v b # $         ",
"      % n m M N B V C Z &       ",
"    * A S = D F G H - J K ;     ",
"  : > L , P I U Y T R < E 1 2   ",
"  3 W Q ! ~ ^ / ( ) _ ` ' ] 4   ",
"  5 [ { } |  ...X.o.O.+.@.#.6   ",
"  5 $.%.&.*.=.-.;.:.>.,.<.1.7   ",
"  8 2.3.4.5.6.7.8.9.0.q.3.2.9   ",
"  0 q w.w e.r.t.y.u.i.e p.r t   ",
"    y a.s.u d.f.g.h.i j.k.p     ",
"      a l.z.x.c.v.b.n.m.s       ",
"        d f M.N.B.V.g h         ",
"            j k l z             ",
"                                "
};
