/* XPM */
static char *_9896b58b6854f00fe5f6bd6ab975791q4y6DF6e4HTGTigO[] = {
/* columns rows colors chars-per-pixel */
"32 32 181 2 ",
"   c None",
".  c #22557F",
"X  c #265B7E",
"o  c #285F7C",
"O  c #246262",
"+  c #306365",
"@  c #2B637C",
"#  c #2F6879",
"$  c #346F77",
"%  c #316C78",
"&  c #387877",
"*  c #6A6665",
"=  c #AE5E62",
"-  c #BE7A69",
";  c #FA575E",
":  c #D56565",
">  c #3F8072",
",  c #6CBC59",
"<  c #478A6F",
"1  c #498E6E",
"2  c #4D946D",
"3  c #539D69",
"4  c #428472",
"5  c #488E75",
"6  c #59A567",
"7  c #5EAB66",
"8  c #56A069",
"9  c #5BA971",
"0  c #61AF65",
"q  c #64B463",
"w  c #67B962",
"e  c #6ABC61",
"r  c #66B969",
"t  c #77CB4F",
"y  c #7CD24E",
"u  c #6EC25E",
"i  c #73C451",
"p  c #76CC55",
"a  c #78CE54",
"s  c #70C55E",
"d  c #74CB5C",
"f  c #7BD354",
"g  c #7EDA56",
"h  c #75D05C",
"j  c #7AD459",
"k  c #6EC364",
"l  c #6BC86D",
"z  c #72CB64",
"x  c #77D162",
"c  c #7AD662",
"v  c #6ACA7E",
"b  c #68C77E",
"n  c #A98D5B",
"m  c #B78F58",
"M  c #83AB6C",
"N  c #AFA678",
"B  c #CE8E5B",
"V  c #EAB84C",
"C  c #C7AC6D",
"Z  c #87DF46",
"A  c #83DB4A",
"S  c #81DD54",
"D  c #80DD58",
"F  c #88E247",
"G  c #86E24D",
"H  c #89E54A",
"J  c #8CEB4A",
"K  c #90EF47",
"L  c #93F144",
"P  c #85E354",
"I  c #88E753",
"U  c #8AEB53",
"Y  c #84E45C",
"T  c #8BEE5D",
"R  c #8DF15B",
"E  c #8EF257",
"W  c #91F655",
"Q  c #90F75C",
"!  c #93FB5E",
"~  c #93FA56",
"^  c #BAC375",
"/  c #87E962",
"(  c #8AEE62",
")  c #81E263",
"_  c #8CF264",
"`  c #91F961",
"'  c #90F760",
"]  c #07308C",
"[  c #103C88",
"{  c #144186",
"}  c #184884",
"|  c #1F5182",
" . c #225580",
".. c #2E7983",
"X. c #A37E86",
"o. c #5F9993",
"O. c #468487",
"+. c #779C9E",
"@. c #7DB09F",
"#. c #5FCD9B",
"$. c #69CC80",
"%. c #67C781",
"&. c #65CC93",
"*. c #61CA98",
"=. c #5EC7A3",
"-. c #5CCAA9",
";. c #5DC8A5",
":. c #53C7B0",
">. c #7CC8AA",
",. c #7CCBB6",
"<. c #7ED1B6",
"1. c #76B8C8",
"2. c #54C5CA",
"3. c #4ACAD2",
"4. c #55CDD4",
"5. c #5DCBD2",
"6. c #4ED4DE",
"7. c #58D3D8",
"8. c #79C6CC",
"9. c #70CCCF",
"0. c #6DD5CB",
"q. c #6ACBD2",
"w. c #63D5D4",
"e. c #71DED3",
"r. c #4BD9E4",
"t. c #56D6E3",
"y. c #57DBE8",
"u. c #4FDFFD",
"i. c #57DFF4",
"p. c #58DFF2",
"a. c #4EE9EE",
"s. c #55E1E6",
"d. c #54E5EC",
"f. c #5BE4EB",
"g. c #5DE7EA",
"h. c #4FE6F2",
"j. c #4EEBF1",
"k. c #4DE3FB",
"l. c #4DEAFE",
"z. c #54E5F2",
"x. c #59E3F3",
"c. c #54EAF3",
"v. c #54E4FC",
"b. c #5AE5F9",
"n. c #58ECF8",
"m. c #5CF7FE",
"M. c #60ECF1",
"N. c #69E5EA",
"B. c #8E8C8D",
"V. c #998B88",
"C. c #859A85",
"Z. c #AC949B",
"A. c #86AD8B",
"S. c #81B899",
"D. c #97BD9D",
"F. c #ADBF85",
"G. c #A3BC92",
"H. c #8A9BA8",
"J. c #A5A2A2",
"K. c #BCACB2",
"L. c #ACB4BD",
"P. c #C68C93",
"I. c #F29FA8",
"U. c #D8AAB4",
"Y. c #FCA2AD",
"T. c #FDA3A2",
"R. c #ECABB6",
"E. c #F5B7BF",
"W. c #FFC0A3",
"Q. c #8FBCC3",
"!. c #9BBBC8",
"~. c #DABCC9",
"^. c #E4BFD2",
"/. c #F3BAC4",
"(. c #87C3CC",
"). c #86D4C2",
"_. c #A1CAD2",
"`. c #DEC3D1",
"'. c #E5C5D1",
"]. c #FFCFDE",
"[. c #EDD2D9",
/* pixels */
"                                                                ",
"                                                                ",
"                                                                ",
"                          e d s u d u                           ",
"                    w d ) / 9 Y E z l / d 7                     ",
"                  j ! Y % } $ P U @ {  .x ! j                   ",
"              e _ r g P j { 3 U j . > X u D r _ q               ",
"            w _ 4 [ $ j P p t A A y S D P g | @ _ 7             ",
"            ` 8 ] & $ f A j $.*.#.$.h g H w } o 0 `             ",
"          h W I $ 4 L h :.y.l.l.y.k.5.M a a 0 P P ~ d           ",
"        e / 0 g D A l A.G.y.H.N V B.w.D.3.z H P e 4 _ 0         ",
"        g 5 & @ f f r.).^ B.; T.W.: 4.h.n.4.f G o . 5 h         ",
"        R @ . % Z -.v.0.>.(./.~.^.U.(.d.9.x.;.F & $ X (         ",
"      e Q 7 @ p j t.x.f.C.`.[.* J.X.'.r.9.f.t.h a @ 8 Q 0       ",
"      s R I U H %.p.f.j.2.I.E.Z.K.P.Y.+.j.f.p.b H U I R w       ",
"      s k w e , &.x.s.8.7._.].X.= Y.!.S.0.f.x.&.i , e z u       ",
"      s x u d i &.x.s.Q.8.a.L.R.R.L.r.<.,.z.x.&.t u u c s       ",
"      u R D D A %.p.f.s.n.4.O N.O.3.c.C F.h.x.v A D D R e       ",
"      e T g g S d t.f.c.h.+ 2.m.& 2.n.,.>.x.t.d S g g T q       ",
"        / D g D A -.i.V.m o.m.M...3.g.z.z.b.=.A D g D /         ",
"        d Y g h S a 6.1.B e.c.f.n @.d.f.b.4.a S j g Y d         ",
"        q ' g @ 7 J z 6.u.f.f.t.C - q.l.4.d K 6 o j ` 7         ",
"          d E 6 $ g G a -.t.p.x.k.v.t.=.f H u 6 6 T d           ",
"            ( U d @ e J A h v &.&.$.h Z S D $ 2 W (             ",
"            0 ` P 6 8 4 j G G A F H g h 3 # d P _ 7             ",
"              0 ( ~ s < 8 % w e 6 3 2 4 u e E _ 7               ",
"                  d ` E d 6 w 0 1 < d h U ! d                   ",
"                    w d T ! R T E Q R ( d q                     ",
"                          q k s s e q                           ",
"                                                                ",
"                                                                ",
"                                                                "
};
