/* XPM */
static char *d38083e4c5df4b5ce9ad2ef92b03d472VGjNZF7hAiA8SCzm[] = {
/* columns rows colors chars-per-pixel */
"64 64 218 2 ",
"   c None",
".  c #111210",
"X  c #251E1E",
"o  c #1D2523",
"O  c #0D2022",
"+  c #2A2425",
"@  c #323935",
"#  c #652123",
"$  c #284545",
"%  c #22567F",
"&  c #255A7E",
"*  c #285F7D",
"=  c #2C647B",
"-  c #2F6879",
";  c #326D78",
":  c #357276",
">  c #3C7B74",
",  c #397676",
"<  c #6D5258",
"1  c #785A60",
"2  c #756F6E",
"3  c #505854",
"4  c #842A27",
"5  c #E33E37",
"6  c #DF3438",
"7  c #DD763A",
"8  c #B34C4A",
"9  c #BE5452",
"0  c #8C7074",
"q  c #A16F75",
"w  c #B27274",
"e  c #95695B",
"r  c #D64848",
"t  c #EE4C4A",
"y  c #E65C65",
"u  c #C47472",
"i  c #E56364",
"p  c #EC7240",
"a  c #3E8075",
"s  c #6BBE5F",
"d  c #65B45F",
"f  c #498E6E",
"g  c #468A6F",
"h  c #4D936D",
"j  c #50976C",
"k  c #549C6A",
"l  c #438471",
"z  c #468A71",
"x  c #498C71",
"c  c #459075",
"v  c #5AA567",
"b  c #5DAB65",
"n  c #57A169",
"m  c #59A469",
"M  c #56AB6F",
"N  c #5DAF71",
"B  c #5EB174",
"V  c #60AF64",
"C  c #63B363",
"Z  c #69BC62",
"A  c #65B96B",
"S  c #61B671",
"D  c #7ACE4C",
"F  c #76C84F",
"G  c #7CD14B",
"H  c #7ED448",
"J  c #6EC25E",
"K  c #6DC556",
"L  c #76C952",
"P  c #78CD51",
"I  c #71C65C",
"U  c #74CB5B",
"Y  c #73C552",
"T  c #7BD354",
"R  c #7ED957",
"E  c #77D05A",
"W  c #7AD459",
"Q  c #7ED958",
"!  c #74CD63",
"~  c #77D163",
"^  c #7AD562",
"/  c #7DDC66",
"(  c #6CC160",
")  c #F4AD3E",
"_  c #B59753",
"`  c #BCA65A",
"'  c #989271",
"]  c #A5A468",
"[  c #B5B473",
"{  c #CFAF57",
"}  c #FFAC46",
"|  c #FFBC45",
" . c #EFB349",
".. c #CBB16B",
"X. c #DC974A",
"o. c #83DC4B",
"O. c #81D847",
"+. c #81DD55",
"@. c #85E255",
"#. c #88E753",
"$. c #8AEB52",
"%. c #86E558",
"&. c #8AED5C",
"*. c #8EF152",
"=. c #8EF35D",
"-. c #8DEE4F",
";. c #82E364",
":. c #86E961",
">. c #89EC62",
",. c #80E169",
"<. c #8BF164",
"1. c #FFC94A",
"2. c #FFDE50",
"3. c #DDC063",
"4. c #001E90",
"5. c #01258E",
"6. c #052C8C",
"7. c #0A338A",
"8. c #0E3988",
"9. c #0A348A",
"0. c #113D87",
"q. c #164485",
"w. c #1B4C82",
"e. c #184784",
"r. c #1E5181",
"t. c #205380",
"y. c #9B7D84",
"u. c #3F888A",
"i. c #56A989",
"p. c #58B288",
"a. c #4EA99A",
"s. c #51AB94",
"d. c #56B597",
"f. c #74A893",
"g. c #6E9EA3",
"h. c #4BB7B8",
"j. c #54B9B6",
"k. c #56A9AE",
"l. c #69A9AB",
"z. c #74B6AC",
"x. c #788284",
"c. c #5FC1BC",
"v. c #6DCBBD",
"b. c #7BC6B0",
"n. c #3DB0D0",
"m. c #4DBDCB",
"M. c #51BFC9",
"N. c #74B6C0",
"B. c #4EC3CB",
"V. c #51C2C5",
"C. c #52C4CB",
"Z. c #5BC5C9",
"A. c #4BC8D5",
"S. c #52CBD1",
"D. c #55C9D1",
"F. c #4CD4D9",
"G. c #52D5DA",
"H. c #58D5DA",
"J. c #54D9DD",
"K. c #59D5D9",
"L. c #6CCDCF",
"P. c #4DDCE7",
"I. c #54DBE1",
"U. c #52D4ED",
"Y. c #54DAE9",
"T. c #55DDF6",
"R. c #52D5F1",
"E. c #4AE4E9",
"W. c #5CE1E6",
"Q. c #53E5EB",
"!. c #5CE5EB",
"~. c #54E9EE",
"^. c #5DE9EE",
"/. c #55E0E3",
"(. c #4EE3F2",
"). c #4BEBF8",
"_. c #54E5F3",
"`. c #5BE5F2",
"'. c #54EDF3",
"]. c #5CEBF2",
"[. c #53E7FB",
"{. c #59F2F8",
"}. c #4FF0F5",
"|. c #61ECF1",
" X c #64F9FE",
".X c #60E9EE",
"XX c #908B91",
"oX c #AF9197",
"OX c #90BA92",
"+X c #A5BA83",
"@X c #869BA0",
"#X c #98AAAC",
"$X c #AFADB3",
"%X c #C0969F",
"&X c #F19197",
"*X c #D39AA3",
"=X c #FF9BA3",
"-X c #D9ADB8",
";X c #CBACB6",
":X c #FAB4BF",
">X c #EFAAB4",
",X c #97C698",
"<X c #EAC785",
"1X c #8BBDC4",
"2X c #D3B8C2",
"3X c #E7B8C4",
"4X c #FCBDC9",
"5X c #91C1C2",
"6X c #BEC5C3",
"7X c #DBCDD3",
"8X c #FECDDB",
"9X c #FBC7D4",
"0X c #F6C6D4",
"qX c #FFD4E3",
"wX c #FFD9E9",
"eX c #FFCBE5",
"rX c #F9F1F4",
"tX c #FAEAEF",
/* pixels */
"                                                                                                                                ",
"                                                                                                                                ",
"                                                                                                                                ",
"                                                                                                                                ",
"                                                                                                                                ",
"                                                                                                                                ",
"                                                          z h k k h z                                                           ",
"                                                l v Z ^ :.=.&.&.&.&.:.:.^ Z m >                                                 ",
"                                            b ~ >.=.%.#.$.E E +.R R R @.$.*.=.>.~ m                                             ",
"                                        V ;.&.%.@.U #.s * w.U @.R @.I & l b E $.#.&.;.m                                         ",
"                                    k ;.&.+.@.C t.8.h > 4.l $.R R @.C 7.7.6.0.> R +.+.&.,.h                                     ",
"                                  Z =.@.R R +.+.h 8.7.0.r.W @.R R $.h 7.& C % 5.h #.R R @.=.A                                   ",
"                              x ,.&.$.@.+.R R +.$.J t.6.> $.R R +.+.% 7.- > w.5.h #.R +.@.@.*.,.>                               ",
"                            j >.$.%.h ; U #.R R R *.k 5.w.R +.R @.I % 8.C j % > R +.+.E - ; @.$.>.l                             ",
"                          j <.$.@.; 5.6.g I @.R R @.Z h s R R R R R +.J E $.@.@.+.R @.J r.6.= R $.<.l                           ",
"                        z >.$.W * 7.= : = q.U @.R R +.$.@.+.+.+.+.+.+.@.+.R +.R R R R *.J 0.6.r.I $.>.,                         ",
"                        ,.$.I q.6.- k w.6.8.J @.R R +.o.o.D L L L L D o.o.+.R R R R +.I & 8.e.6.w.+.$.,.                        ",
"                      Z &.+.Q , 7.0.f s l Z @.R +.o.Y S d.h.B.D.D.B.h.d.S L R +.R +.@.- 5.w.E l g %.+.$.A                       ",
"                    n =.+.R +.$.> 7.9.V *.@.+.o.Y p.m.U.`.`.^.`.`.].].`.U.A.c K @.+.+.E * v $.+.R R R +.=.h                     ",
"                    ;.@.+.R R @.@.t.* U +.+.H p.A.[.^.!.!.^.^.(.P.P.Q.^.!.K.[ g.M O.+.@.+.+.R +.+.R @.+.@.,.                    ",
"                  C &.@.%.@.@.+.@.I Q @.+.G i.l.z.v.!.'.Q.I.J.+X3.{ e P.F.f.1.[ n.s.G +.+.R R R +.@.E +.%.&.n                   ",
"                  :.$.C = C I +.+.@.+.+.D h.Z. .) +X).Z.w y 9 ) 2.1.t y.'.'.f.H.{.T.a.G +.R R +.R : 0.% J $.,.                  ",
"                b =.+.% 5.b - % U +.+.O.a.[.(.+X1.` V.u t t y u <X..r t Z.].F.W.W.!.T.s.O.+.R #.f 6.8.6.w.R =.k                 ",
"                ~ $.V 6.> $.e.0.W @.o.B R.!._.v.{ v.Z.t i -X8XqXeX8X*X8 Z.].!.W.W.W.^.U.N o.R @.: 7.C k 6.k *.!                 ",
"                >.$.l 5.V V 5., #.+.Y m.].W._.b.[ ).E.w 9X3X-XqX9X-X0X-Xl.~.W.!.G.J.!.].m.F +.#.f 6.I @.8.; $.>.>               ",
"              V &.$.l 7.& q.9.s @.o.p.`.W.W._.L.{ /.P.7X8X7X#X*X8X6XXXqX*XZ.^.J.5XL.J.!.T.p.o.@.I 0.e.- 7.; @.&.k               ",
"              ( %.@.J q.5.6.f $.+.L B.^.W.W.!.Y.` z.L.9X9XtX@ 1 rXXX+ qX9X#X~.S.5X5XF.!.].m.F +.$.k 6.5.0.C %.%.C               ",
"              ^ @.R @.I h V %.+.o.S U.!.W.W.W.'.l.8 $XwX0XrX3 < rX#XX qX8X$XE.].S.G.^.W.!.U.S o.R @.C h J %.R @.~               ",
"              :.+.R R @.$.@.R R o.d.`.W.W.W.W.!.}.0 &X4X>X7X@ 1 tX2 + :X4X*Xx.'.!.W.W.W.W.`.d.o.R R %.$.@.R R +.;.              ",
"              :.+.+.+.+.+.+.+.+.G j.`.W.W.W.W.W.^.E.$X&X=X0X8X3X3XqX0X&X=X;X8 g.'.W.W.W.W.`.j.G +.+.R +.R +.+.+.:.>             ",
"            m &.Q W Q Q E E E +.L C.`.W.W.W.].h.G.}.L.9XqX0X;XoXy.q q 8X:Xz.c._ I.^.W.W.W.`.M.P R W R W Q W W R :.g             ",
"            n =.h k h v k v h d T D.^.W.W.I.K.$X1XI.F.2XqXqX0 . 4 r *X8XoXF.}...b._.W.W.W.^.C.T U h v v b k n n =.k             ",
"            k =.V C C C U I v I P D.^.W.!.F.l.4X;Xh.Q.S.2XwXwX4X>X9X8X%XM.~.).+X+X(.W.W.W.`.C.T I v Z C V C C Z =.k             ",
"            j :.@.+.+.+.+.+.@.@.L C.`.W.W.!.'.l.D.].W.'.G.0 3X8X8X-X@XS.~.W.(.OX+X(.W.W.W.`.V.P +.@.+.+.+.+.+.@.:.h             ",
"              :.+.R R R R R R +.G j.`.W.W.W.!.F.I.W.W. X: O G.W.j.O F.{.^.J.]  .[ P.W.W.W.`.j.G +.R R R R R R +.:.l             ",
"              ;.+.R R R R R R R o.d.`.W.W.W.W.!.W.W. Xh.. V.{.{.B.o H.^.W.Q.z.| | z._.W.W.`.d.o.R R R R R R R +.;.              ",
"              ^ @.R R R R R R R o.S U.!.W.W.W.W.W.|.W.. u. XW.].C.o H.^.W._.v.] _ OX_.W.!.U.A o.R R R R R R R @.^               ",
"              Z %.R R R R R R R +.L m.].W.W.'.'.].{.$ $  X!.W.].C.o H..XW.W.!.Y.I.Q.W.W.].m.F +.R R R R R R R %.C               ",
"              b &.R R R R R R R R o.p.T.!.W.z.z.L.1 + W.|.W.W.].C.o H..XW.W.W.!.^.W.W.!.T.p.o.R R R R R R R R &.n               ",
"                :.+.R R R R R R R +.Y m.{.J.9 5 { } ' '.W.W.W.|.S.O J..XW.W.W.W.W.W.W.].m.F +.R R R R R R R +.:.a               ",
"                ! %.R R R R R @.R R o.N U.].H.q p 1.,X_.W.W.W.].l.# j.{.W.W.W.W.W.W.^.U.S o.R R @.R R R R R %.!                 ",
"                b &.R R R R @.I Q R +.O.s.T.{.}.XXe /.^.W.W.!.P.[ | ] D.^.W.W.W.W.!.T.i.O.R R +.I @.+.R R R &.n                 ",
"                  ;.+.R +.+.h 9.b $.R +.D a.T.].~.I.!.W.W.W.^.G.X.} 7 6 g.'.W.W.^.T.a.H +.R @.v & k E +.R +.,.                  ",
"                  b &.R +.Q - q.k R +.Q +.G s.U.].^.W.W.W.W.!.H.XXXXXXoXz.~.!.].U.i.G +.Q @.W q.w.r.E +.R &.m                   ",
"                    ;.@.R +.R > 0.& @.+.Q +.O.B m.T.].!.W.W.W.W.'.}.'.}.].`.T.m.S O.+.Q +.@.+.k 0.C @.R @.,.                    ",
"                    n =.+.R #.V q.b @.@.@.Q +.o.F p.m.U.`.`.`.^.`.`.`.`.U.C.p.F o.+.R +.R ; k $.E +.R +.=.k                     ",
"                      Z &.R R Q Q +.- = I +.R R +.o.L S d.j.V.C.C.C.j.d.A D o.+.R R +.#.> = ; h $.R R &.Z                       ",
"                        ,.%.R +.$.Z 0.> - @.$.@.R R +.o.o.G P L L P G o.o.+.R R R @.R $.f 0.; Q +.R %.,.                        ",
"                        z >.@.R R @.l & J U j I @.R +.R R +.+.+.+.+.+.R R +.@.@.+.g e.V @.I +.+.R @.>.l                         ",
"                          h <.@.R +.@.Z @.= w.& Z $.@.@.R R @.R +.+.+.+.R @.s Z %.& e.w.I $.+.R @.<.x                           ",
"                            h >.%.R R @.@.h t.l E k = f R R U R R +.E U W - q.l *.> f +.R R R %.>.z                             ",
"                              l ,.&.+.R R @.b k @.e.> q.b s r.@.l & - : $.w.- +.+.E +.+.R +.&./ >                               ",
"                                  Z =.@.R R %.%.@.C - - W m e.$.l q.e.= $.v n %.R +.+.R @.=.Z                                   ",
"                                    m ;.&.+.R R R @.@.@.@.J b @.C b U Z R @.@.R R R +.&.,.k                                     ",
"                                        C ;.&.%.+.R +.+.R +.%.Q @.@.+.@.R R R +.%.&.,.b                                         ",
"                                            b ! >.&.%.@.+.+.+.R R +.+.+.@.%.&.:.! n                                             ",
"                                                  b Z ^ ;.:.:.&.&.:.:.;.~ Z v l                                                 ",
"                                                            h k k h l                                                           ",
"                                                                                                                                ",
"                                                                                                                                ",
"                                                                                                                                ",
"                                                                                                                                ",
"                                                                                                                                ",
"                                                                                                                                "
};
